<?xml version="1.0" encoding="UTF-8"?>
<svg xmlns="http://www.w3.org/2000/svg" xmlns:xlink="http://www.w3.org/1999/xlink" xmlns:i="http://ns.adobe.com/AdobeIllustrator/10.0/" version="1.1" viewBox="0 0 1181.172 1500">
  <defs>
    
    <linearGradient id="grad-green" x1="398.023" y1="1653.179" x2="398.023" y2="632.241" gradientUnits="userSpaceOnUse">
      <stop offset="0" stop-color="#1a9a61"></stop>
      <stop offset="1" stop-color="#20d72b"></stop>
    </linearGradient>
    <linearGradient id="grad-lime" x1="168.066" y1="1587.547" x2="168.066" y2="858.306" gradientUnits="userSpaceOnUse">
      <stop offset="0" stop-color="#399f00"></stop>
      <stop offset="1" stop-color="#84da00"></stop>
    </linearGradient>
    <linearGradient id="grad-teal" x1="813.607" y1="1518" x2="784.437" y2="314.752" gradientUnits="userSpaceOnUse">
      <stop offset="0" stop-color="#209c8c"></stop>
      <stop offset=".027" stop-color="#1b8283"></stop>
      <stop offset="1" stop-color="#2dcbb6"></stop>
    </linearGradient>
  </defs>
  
  <g>
    <g id="Layer_1">
      <g>
        <path fill="url(#grad-green)" d="M297.835,366.55h-49.92v49.92c0,138.205,110.241,250.295,247.522,254.224-95.681,11.787-169.868,93.369-169.868,192.286v590.955h0c107.005,0,193.904-86.898,193.904-193.903v-591.186c0-97.992-79.965-147.219-160.623-178.188,84.818,13.867,167.788,72.569,184.89,180.037h4.391v-49.92c0-140.516-109.779-254.455-250.295-254.455v.231Z"></path>
        <path fill="url(#grad-lime)" d="M96.305,708.134h-35.822v35.822c0,99.147,33.28,178.881,170.561,182.579-95.681,11.787-169.868,93.37-169.868,192.286v334.882h0c107.005,0,193.904-86.898,193.904-193.903v-334.882c0-70.258-57.316-105.387-115.094-127.574,60.783,9.938,120.41,52,132.659,129.192h3.004v-35.822c0-100.765-78.578-182.579-179.343-182.579Z"></path>
        <path fill="url(#grad-teal)" d="M1120.828,102.157v-56.16h-56.16c-156.463,0-283.575,125.725-286.117,281.726-3.236-155.308-129.885-280.109-285.886-280.109h-56.16v56.16c0,158.081,128.267,286.349,286.349,286.349h26.578c-92.907,14.329-164.321,94.294-164.321,191.361v872.219c107.005,0,193.904-86.898,193.904-193.903V450.444c5.778,152.997,131.272,275.486,285.655,275.486h56.16v-56.16c0-145.832-131.734-262.082-272.713-279.646,140.979-17.796,272.713-141.903,272.713-287.735v-.231ZM964.133,214.246c-30.969,138.899-134.508,164.552-167.094,171.254,34.898,8.782,126.65,63.556,167.094,204.304,1.618,4.622,2.311,7.396,2.311,7.396-.693-2.542-1.618-4.853-2.311-7.396-9.476-26.347-70.721-150.685-185.121-196.446-94.063-37.671-149.992-95.218-177.032-177.957-1.618-4.622-2.311-7.396-2.311-7.396.693,2.542,1.618,4.853,2.311,7.396,32.356,62.632,108.161,151.379,178.419,151.379,75.574,0,141.21-63.787,183.735-152.765.693-2.542,1.618-4.853,2.311-7.396,0,0-.693,2.773-2.311,7.396v.231Z"></path>
      </g>
    </g>
  </g>
  
</svg>