<svg xmlns="http://www.w3.org/2000/svg" width="88.09279107326384" height="40" viewBox="0 0 1500 681.1" role="img" aria-label="Maitri"><defs><linearGradient id="mlg-_R_a5btb_-teal" x1="375" y1="655.2" x2="362.8" y2="151.2" gradientUnits="userSpaceOnUse"><stop offset="0" stop-color="#1b8182"></stop><stop offset="1" stop-color="#2dcbb6"></stop></linearGradient><linearGradient id="mlg-_R_a5btb_-green" x1="200.9" y1="711.8" x2="200.9" y2="284.2" gradientUnits="userSpaceOnUse"><stop offset="0" stop-color="#1a9861"></stop><stop offset="1" stop-color="#20d72b"></stop></linearGradient><linearGradient id="mlg-_R_a5btb_-lime" x1="104.6" y1="684.3" x2="104.6" y2="378.9" gradientUnits="userSpaceOnUse"><stop offset="0" stop-color="#399d00"></stop><stop offset="1" stop-color="#84da00"></stop></linearGradient></defs><path fill="url(#mlg-_R_a5btb_-green)" d="M158.9,172.9h-20.9v20.9c0,57.9,46.2,104.8,103.7,106.5-40.1,4.9-71.2,39.1-71.2,80.5v247.5h0c44.8,0,81.2-36.4,81.2-81.2v-247.6c0-41-33.5-61.7-67.3-74.6,35.5,5.8,70.3,30.4,77.4,75.4h1.8v-20.9c0-58.9-46-106.6-104.8-106.6h0Z"></path><path fill="url(#mlg-_R_a5btb_-lime)" d="M74.5,315.9h-15v15c0,41.5,13.9,74.9,71.4,76.5-40.1,4.9-71.2,39.1-71.2,80.5v140.3h0c44.8,0,81.2-36.4,81.2-81.2v-140.3c0-29.4-24-44.1-48.2-53.4,25.5,4.2,50.4,21.8,55.6,54.1h1.3v-15c0-42.2-32.9-76.5-75.1-76.5Z"></path><path fill="url(#mlg-_R_a5btb_-teal)" d="M503.7,62.1v-23.5h-23.5c-65.5,0-118.8,52.7-119.9,118-1.4-65.1-54.4-117.3-119.8-117.3h-23.5v23.5c0,66.2,53.7,119.9,119.9,119.9h11.1c-38.9,6-68.8,39.5-68.8,80.2v365.4c44.8,0,81.2-36.4,81.2-81.2V208c2.4,64.1,55,115.4,119.7,115.4h23.5v-23.5c0-61.1-55.2-109.8-114.2-117.1,59.1-7.5,114.2-59.4,114.2-120.5h0ZM438,109.1c-13,58.2-56.3,68.9-70,71.7,14.6,3.7,53.1,26.6,70,85.6.7,1.9,1,3.1,1,3.1-.3-1.1-.7-2-1-3.1-4-11-29.6-63.1-77.5-82.3-39.4-15.8-62.8-39.9-74.2-74.5-.7-1.9-1-3.1-1-3.1.3,1.1.7,2,1,3.1,13.6,26.2,45.3,63.4,74.7,63.4s59.2-26.7,77-64c .3-1.1.7-2,1-3.1,0,0-.3,1.2-1,3.1h0Z"></path><path fill="#11194B" d="M665.1,363.4h56.9v251.7h-50.5v-163.7l-67.5,163.7h-38.2l-67.8-163.7v163.7h-50.5v-251.7h57.3l80.1,187.1,80.1-187.1ZM755.2,514.4c0-20.2,4-38.1,12.1-53.7,8-15.6,19-27.6,32.8-36.1,13.8-8.4,29.2-12.6,46.3-12.6h0c14.9,0,28,3,39.1,9,11.2,6,20.1,13.6,26.9,22.7h0v-28.5h50.9v199.7h-50.9v-29.2c-6.5,9.4-15.4,17.1-26.9,23.3-11.4,6.1-24.6,9.2-39.5,9.2h0c-16.8,0-32.1-4.3-45.9-13-13.8-8.6-24.8-20.8-32.8-36.6-8-15.7-12.1-33.8-12.1-54.3h0ZM912.4,515.1c0-12.2-2.4-22.7-7.2-31.5-4.8-8.8-11.3-15.5-19.5-20.2-8.2-4.7-16.9-7-26.3-7h0c-9.4,0-18,2.3-26,6.8-7.9,4.6-14.3,11.2-19.3,20-4.9,8.8-7.4,19.2-7.4,31.2h0c0,12,2.5,22.5,7.4,31.5,4.9,9,11.4,16,19.5,20.8,8,4.8,16.6,7.2,25.8,7.2h0c9.4,0,18.1-2.3,26.3-7,8.2-4.7,14.7-11.4,19.5-20.2,4.8-8.8,7.2-19.3,7.2-31.6h0ZM1034.6,391.5c-8.9,0-16.3-2.8-22.2-8.5-5.9-5.7-8.8-12.7-8.8-21.1h0c0-8.4,2.9-15.4,8.8-21.1,5.9-5.6,13.3-8.5,22.2-8.5h0c8.9,0,16.2,2.8,22.1,8.5,5.9,5.6,8.8,12.7,8.8,21.1h0c0,8.4-2.9,15.5-8.8,21.1-5.9,5.6-13.3,8.5-22.1,8.5h0ZM1009,415.3h50.5v199.7h-50.5v-199.7ZM1209.1,456.7h-44.7v96.6c0,6.8,1.6,11.6,4.8,14.6,3.2,3,8.7,4.5,16.4,4.5h23.4v42.5h-31.8c-42.5,0-63.8-20.7-63.8-62h0v-96.2h-23.8v-41.5h23.8v-49.4h50.9v49.4h44.7v41.5ZM1292.4,446.3c6.5-10.6,14.9-18.9,25.4-24.9,10.4-6,22.4-9,35.9-9h0v53h-13.4c-15.9,0-27.8,3.7-35.9,11.2-8,7.5-12.1,20.4-12.1,38.9h0v99.5h-50.5v-199.7h50.5v31ZM1409.6,391.5c-8.9,0-16.3-2.8-22.2-8.5-5.9-5.7-8.8-12.7-8.8-21.1h0c0-8.4,2.9-15.4,8.8-21.1,5.9-5.6,13.3-8.5,22.2-8.5h0c8.9,0,16.2,2.8,22.1,8.5,5.9,5.6,8.8,12.7,8.8,21.1h0c0,8.4-2.9,15.5-8.8,21.1-5.9,5.6-13.3,8.5-22.1,8.5h0ZM1384,415.3h50.5v199.7h-50.5v-199.7Z"></path></svg>